<svg xmlns="http://www.w3.org/2000/svg" viewBox="-128 -128 256 256"><defs><clipPath id="c"><path d="M0,0 L-128,128 L-128,-128 Z"/></clipPath></defs><g transform="rotate(90)"><path d="M0,0 L-128,128 L-128,-128 Z" fill="#854aa3"/><path d="m-128,-32 v -32 a64,64 30 0,1 0,128 v -40 l 24, 24 l 24,-24 l -24,-24 l 24,-24 l -24,-24 l -24,24" fill="#eced25" stroke="#c9bb4b" stroke-width="1" clip-path="url(#c)"/></g><g transform="rotate(180)"><path d="M0,0 L-128,128 L-128,-128 Z" fill="#2bb35a"/><path d="m-128,-96 l 32,32 l -8,40 l 40,-8 l 32,32 l -32,32 l -40,-8 l 8,40 l -32,32" fill="#f4892a" stroke="#778e3d" stroke-width="1" clip-path="url(#c)"/></g><g transform="rotate(-90)"><path d="M0,0 L-128,128 L-128,-128 Z" fill="#831b43"/><path d="m-128,0 m-8,-40 a16,16 30 1,1 16,0 l 32,32 a16,16 30 1,1 0,16 l -32,32 a16,16 30 1,1 -16,0 l 8,-16 l 24,-24 l -24,-24" fill="#f48614" stroke="#b76742" stroke-width="1" clip-path="url(#c)"/></g><g transform="rotate(0)"><path d="M0,0 L-128,128 L-128,-128 Z" fill="#fdf103"/><path d="m-128,-96 l 32,32 l -8,8 l 32,32 l 8,-8 l 32,32 l -32,32 l -8,-8 l -32,32 l 8,8 l -32,32" fill="#145c8c" stroke="#8e9743" stroke-width="1" clip-path="url(#c)"/></g><rect x="-128" y="-128" width="256" height="256" fill="none" stroke="#000" stroke-width="8"/></svg>