<svg xmlns="http://www.w3.org/2000/svg" viewBox="0 0 240 240" width="240" height="240" role="img">
<rect width="100%" height="100%" fill="#111"/>
<polygon points="0,0 40,0 20,20" fill="#9a9a9a"/>
<polygon points="40,0 40,40 20,20" fill="#f2c744"/>
<polygon points="0,40 40,40 20,20" fill="#f2c744"/>
<polygon points="0,0 0,40 20,20" fill="#9a9a9a"/>
<rect x="0" y="0" width="40" height="40" fill="none" stroke="#1c1c1c" stroke-width="1"/>
<polygon points="40,0 80,0 60,20" fill="#9a9a9a"/>
<polygon points="80,0 80,40 60,20" fill="#2176dd"/>
<polygon points="40,40 80,40 60,20" fill="#17c3c8"/>
<polygon points="40,0 40,40 60,20" fill="#f2c744"/>
<rect x="40" y="0" width="40" height="40" fill="none" stroke="#1c1c1c" stroke-width="1"/>
<polygon points="80,0 120,0 100,20" fill="#9a9a9a"/>
<polygon points="120,0 120,40 100,20" fill="#d62828"/>
<polygon points="80,40 120,40 100,20" fill="#17c3c8"/>
<polygon points="80,0 80,40 100,20" fill="#2176dd"/>
<rect x="80" y="0" width="40" height="40" fill="none" stroke="#1c1c1c" stroke-width="1"/>
<polygon points="120,0 160,0 140,20" fill="#9a9a9a"/>
<polygon points="160,0 160,40 140,20" fill="#d62828"/>
<polygon points="120,40 160,40 140,20" fill="#17c3c8"/>
<polygon points="120,0 120,40 140,20" fill="#d62828"/>
<rect x="120" y="0" width="40" height="40" fill="none" stroke="#1c1c1c" stroke-width="1"/>
<polygon points="160,0 200,0 180,20" fill="#9a9a9a"/>
<polygon points="200,0 200,40 180,20" fill="#2176dd"/>
<polygon points="160,40 200,40 180,20" fill="#17c3c8"/>
<polygon points="160,0 160,40 180,20" fill="#d62828"/>
<rect x="160" y="0" width="40" height="40" fill="none" stroke="#1c1c1c" stroke-width="1"/>
<polygon points="200,0 240,0 220,20" fill="#9a9a9a"/>
<polygon points="240,0 240,40 220,20" fill="#9a9a9a"/>
<polygon points="200,40 240,40 220,20" fill="#2eb85c"/>
<polygon points="200,0 200,40 220,20" fill="#2176dd"/>
<rect x="200" y="0" width="40" height="40" fill="none" stroke="#1c1c1c" stroke-width="1"/>
<polygon points="0,40 40,40 20,60" fill="#f2c744"/>
<polygon points="40,40 40,80 20,60" fill="#17c3c8"/>
<polygon points="0,80 40,80 20,60" fill="#2176dd"/>
<polygon points="0,40 0,80 20,60" fill="#9a9a9a"/>
<rect x="0" y="40" width="40" height="40" fill="none" stroke="#1c1c1c" stroke-width="1"/>
<polygon points="40,40 80,40 60,60" fill="#17c3c8"/>
<polygon points="80,40 80,80 60,60" fill="#f0821e"/>
<polygon points="40,80 80,80 60,60" fill="#17c3c8"/>
<polygon points="40,40 40,80 60,60" fill="#17c3c8"/>
<rect x="40" y="40" width="40" height="40" fill="none" stroke="#1c1c1c" stroke-width="1"/>
<polygon points="80,40 120,40 100,60" fill="#17c3c8"/>
<polygon points="120,40 120,80 100,60" fill="#f0821e"/>
<polygon points="80,80 120,80 100,60" fill="#17c3c8"/>
<polygon points="80,40 80,80 100,60" fill="#f0821e"/>
<rect x="80" y="40" width="40" height="40" fill="none" stroke="#1c1c1c" stroke-width="1"/>
<polygon points="120,40 160,40 140,60" fill="#17c3c8"/>
<polygon points="160,40 160,80 140,60" fill="#8e44c9"/>
<polygon points="120,80 160,80 140,60" fill="#f0821e"/>
<polygon points="120,40 120,80 140,60" fill="#f0821e"/>
<rect x="120" y="40" width="40" height="40" fill="none" stroke="#1c1c1c" stroke-width="1"/>
<polygon points="160,40 200,40 180,60" fill="#17c3c8"/>
<polygon points="200,40 200,80 180,60" fill="#17c3c8"/>
<polygon points="160,80 200,80 180,60" fill="#17c3c8"/>
<polygon points="160,40 160,80 180,60" fill="#8e44c9"/>
<rect x="160" y="40" width="40" height="40" fill="none" stroke="#1c1c1c" stroke-width="1"/>
<polygon points="200,40 240,40 220,60" fill="#2eb85c"/>
<polygon points="240,40 240,80 220,60" fill="#9a9a9a"/>
<polygon points="200,80 240,80 220,60" fill="#d62828"/>
<polygon points="200,40 200,80 220,60" fill="#17c3c8"/>
<rect x="200" y="40" width="40" height="40" fill="none" stroke="#1c1c1c" stroke-width="1"/>
<polygon points="0,80 40,80 20,100" fill="#2176dd"/>
<polygon points="40,80 40,120 20,100" fill="#f0821e"/>
<polygon points="0,120 40,120 20,100" fill="#d62828"/>
<polygon points="0,80 0,120 20,100" fill="#9a9a9a"/>
<rect x="0" y="80" width="40" height="40" fill="none" stroke="#1c1c1c" stroke-width="1"/>
<polygon points="40,80 80,80 60,100" fill="#17c3c8"/>
<polygon points="80,80 80,120 60,100" fill="#17c3c8"/>
<polygon points="40,120 80,120 60,100" fill="#8e44c9"/>
<polygon points="40,80 40,120 60,100" fill="#f0821e"/>
<rect x="40" y="80" width="40" height="40" fill="none" stroke="#1c1c1c" stroke-width="1"/>
<polygon points="80,80 120,80 100,100" fill="#17c3c8"/>
<polygon points="120,80 120,120 100,100" fill="#f0821e"/>
<polygon points="80,120 120,120 100,100" fill="#f0821e"/>
<polygon points="80,80 80,120 100,100" fill="#17c3c8"/>
<rect x="80" y="80" width="40" height="40" fill="none" stroke="#1c1c1c" stroke-width="1"/>
<polygon points="120,80 160,80 140,100" fill="#f0821e"/>
<polygon points="160,80 160,120 140,100" fill="#17c3c8"/>
<polygon points="120,120 160,120 140,100" fill="#f0821e"/>
<polygon points="120,80 120,120 140,100" fill="#f0821e"/>
<rect x="120" y="80" width="40" height="40" fill="none" stroke="#1c1c1c" stroke-width="1"/>
<polygon points="160,80 200,80 180,100" fill="#17c3c8"/>
<polygon points="200,80 200,120 180,100" fill="#f0821e"/>
<polygon points="160,120 200,120 180,100" fill="#f0821e"/>
<polygon points="160,80 160,120 180,100" fill="#17c3c8"/>
<rect x="160" y="80" width="40" height="40" fill="none" stroke="#1c1c1c" stroke-width="1"/>
<polygon points="200,80 240,80 220,100" fill="#d62828"/>
<polygon points="240,80 240,120 220,100" fill="#9a9a9a"/>
<polygon points="200,120 240,120 220,100" fill="#2eb85c"/>
<polygon points="200,80 200,120 220,100" fill="#f0821e"/>
<rect x="200" y="80" width="40" height="40" fill="none" stroke="#1c1c1c" stroke-width="1"/>
<polygon points="0,120 40,120 20,140" fill="#d62828"/>
<polygon points="40,120 40,160 20,140" fill="#f0821e"/>
<polygon points="0,160 40,160 20,140" fill="#2176dd"/>
<polygon points="0,120 0,160 20,140" fill="#9a9a9a"/>
<rect x="0" y="120" width="40" height="40" fill="none" stroke="#1c1c1c" stroke-width="1"/>
<polygon points="40,120 80,120 60,140" fill="#8e44c9"/>
<polygon points="80,120 80,160 60,140" fill="#8e44c9"/>
<polygon points="40,160 80,160 60,140" fill="#f0821e"/>
<polygon points="40,120 40,160 60,140" fill="#f0821e"/>
<rect x="40" y="120" width="40" height="40" fill="none" stroke="#1c1c1c" stroke-width="1"/>
<polygon points="80,120 120,120 100,140" fill="#f0821e"/>
<polygon points="120,120 120,160 100,140" fill="#17c3c8"/>
<polygon points="80,160 120,160 100,140" fill="#f0821e"/>
<polygon points="80,120 80,160 100,140" fill="#8e44c9"/>
<rect x="80" y="120" width="40" height="40" fill="none" stroke="#1c1c1c" stroke-width="1"/>
<polygon points="120,120 160,120 140,140" fill="#f0821e"/>
<polygon points="160,120 160,160 140,140" fill="#17c3c8"/>
<polygon points="120,160 160,160 140,140" fill="#f0821e"/>
<polygon points="120,120 120,160 140,140" fill="#17c3c8"/>
<rect x="120" y="120" width="40" height="40" fill="none" stroke="#1c1c1c" stroke-width="1"/>
<polygon points="160,120 200,120 180,140" fill="#f0821e"/>
<polygon points="200,120 200,160 180,140" fill="#f0821e"/>
<polygon points="160,160 200,160 180,140" fill="#f0821e"/>
<polygon points="160,120 160,160 180,140" fill="#17c3c8"/>
<rect x="160" y="120" width="40" height="40" fill="none" stroke="#1c1c1c" stroke-width="1"/>
<polygon points="200,120 240,120 220,140" fill="#2eb85c"/>
<polygon points="240,120 240,160 220,140" fill="#9a9a9a"/>
<polygon points="200,160 240,160 220,140" fill="#d62828"/>
<polygon points="200,120 200,160 220,140" fill="#f0821e"/>
<rect x="200" y="120" width="40" height="40" fill="none" stroke="#1c1c1c" stroke-width="1"/>
<polygon points="0,160 40,160 20,180" fill="#2176dd"/>
<polygon points="40,160 40,200 20,180" fill="#f0821e"/>
<polygon points="0,200 40,200 20,180" fill="#f2c744"/>
<polygon points="0,160 0,200 20,180" fill="#9a9a9a"/>
<rect x="0" y="160" width="40" height="40" fill="none" stroke="#1c1c1c" stroke-width="1"/>
<polygon points="40,160 80,160 60,180" fill="#f0821e"/>
<polygon points="80,160 80,200 60,180" fill="#17c3c8"/>
<polygon points="40,200 80,200 60,180" fill="#17c3c8"/>
<polygon points="40,160 40,200 60,180" fill="#f0821e"/>
<rect x="40" y="160" width="40" height="40" fill="none" stroke="#1c1c1c" stroke-width="1"/>
<polygon points="80,160 120,160 100,180" fill="#f0821e"/>
<polygon points="120,160 120,200 100,180" fill="#17c3c8"/>
<polygon points="80,200 120,200 100,180" fill="#17c3c8"/>
<polygon points="80,160 80,200 100,180" fill="#17c3c8"/>
<rect x="80" y="160" width="40" height="40" fill="none" stroke="#1c1c1c" stroke-width="1"/>
<polygon points="120,160 160,160 140,180" fill="#f0821e"/>
<polygon points="160,160 160,200 140,180" fill="#8e44c9"/>
<polygon points="120,200 160,200 140,180" fill="#f0821e"/>
<polygon points="120,160 120,200 140,180" fill="#17c3c8"/>
<rect x="120" y="160" width="40" height="40" fill="none" stroke="#1c1c1c" stroke-width="1"/>
<polygon points="160,160 200,160 180,180" fill="#f0821e"/>
<polygon points="200,160 200,200 180,180" fill="#17c3c8"/>
<polygon points="160,200 200,200 180,180" fill="#17c3c8"/>
<polygon points="160,160 160,200 180,180" fill="#8e44c9"/>
<rect x="160" y="160" width="40" height="40" fill="none" stroke="#1c1c1c" stroke-width="1"/>
<polygon points="200,160 240,160 220,180" fill="#d62828"/>
<polygon points="240,160 240,200 220,180" fill="#9a9a9a"/>
<polygon points="200,200 240,200 220,180" fill="#f2c744"/>
<polygon points="200,160 200,200 220,180" fill="#17c3c8"/>
<rect x="200" y="160" width="40" height="40" fill="none" stroke="#1c1c1c" stroke-width="1"/>
<polygon points="0,200 40,200 20,220" fill="#f2c744"/>
<polygon points="40,200 40,240 20,220" fill="#2eb85c"/>
<polygon points="0,240 40,240 20,220" fill="#9a9a9a"/>
<polygon points="0,200 0,240 20,220" fill="#9a9a9a"/>
<rect x="0" y="200" width="40" height="40" fill="none" stroke="#1c1c1c" stroke-width="1"/>
<polygon points="40,200 80,200 60,220" fill="#17c3c8"/>
<polygon points="80,200 80,240 60,220" fill="#2176dd"/>
<polygon points="40,240 80,240 60,220" fill="#9a9a9a"/>
<polygon points="40,200 40,240 60,220" fill="#2eb85c"/>
<rect x="40" y="200" width="40" height="40" fill="none" stroke="#1c1c1c" stroke-width="1"/>
<polygon points="80,200 120,200 100,220" fill="#17c3c8"/>
<polygon points="120,200 120,240 100,220" fill="#2eb85c"/>
<polygon points="80,240 120,240 100,220" fill="#9a9a9a"/>
<polygon points="80,200 80,240 100,220" fill="#2176dd"/>
<rect x="80" y="200" width="40" height="40" fill="none" stroke="#1c1c1c" stroke-width="1"/>
<polygon points="120,200 160,200 140,220" fill="#f0821e"/>
<polygon points="160,200 160,240 140,220" fill="#2eb85c"/>
<polygon points="120,240 160,240 140,220" fill="#9a9a9a"/>
<polygon points="120,200 120,240 140,220" fill="#2eb85c"/>
<rect x="120" y="200" width="40" height="40" fill="none" stroke="#1c1c1c" stroke-width="1"/>
<polygon points="160,200 200,200 180,220" fill="#17c3c8"/>
<polygon points="200,200 200,240 180,220" fill="#f2c744"/>
<polygon points="160,240 200,240 180,220" fill="#9a9a9a"/>
<polygon points="160,200 160,240 180,220" fill="#2eb85c"/>
<rect x="160" y="200" width="40" height="40" fill="none" stroke="#1c1c1c" stroke-width="1"/>
<polygon points="200,200 240,200 220,220" fill="#f2c744"/>
<polygon points="240,200 240,240 220,220" fill="#9a9a9a"/>
<polygon points="200,240 240,240 220,220" fill="#9a9a9a"/>
<polygon points="200,200 200,240 220,220" fill="#f2c744"/>
<rect x="200" y="200" width="40" height="40" fill="none" stroke="#1c1c1c" stroke-width="1"/>
</svg>
