<svg xmlns="http://www.w3.org/2000/svg" viewBox="0 0 480 240" width="480" height="240" role="img">
<rect width="100%" height="100%" fill="#111"/>
<polygon points="0,0 40,0 20,20" fill="#9a9a9a"/>
<polygon points="40,0 40,40 20,20" fill="#f2c744"/>
<polygon points="0,40 40,40 20,20" fill="#2176dd"/>
<polygon points="0,0 0,40 20,20" fill="#9a9a9a"/>
<rect x="0" y="0" width="40" height="40" fill="none" stroke="#1c1c1c" stroke-width="1"/>
<polygon points="40,0 80,0 60,20" fill="#9a9a9a"/>
<polygon points="80,0 80,40 60,20" fill="#2eb85c"/>
<polygon points="40,40 80,40 60,20" fill="#17c3c8"/>
<polygon points="40,0 40,40 60,20" fill="#f2c744"/>
<rect x="40" y="0" width="40" height="40" fill="none" stroke="#1c1c1c" stroke-width="1"/>
<polygon points="80,0 120,0 100,20" fill="#9a9a9a"/>
<polygon points="120,0 120,40 100,20" fill="#d62828"/>
<polygon points="80,40 120,40 100,20" fill="#17c3c8"/>
<polygon points="80,0 80,40 100,20" fill="#2eb85c"/>
<rect x="80" y="0" width="40" height="40" fill="none" stroke="#1c1c1c" stroke-width="1"/>
<polygon points="120,0 160,0 140,20" fill="#9a9a9a"/>
<polygon points="160,0 160,40 140,20" fill="#d62828"/>
<polygon points="120,40 160,40 140,20" fill="#17c3c8"/>
<polygon points="120,0 120,40 140,20" fill="#d62828"/>
<rect x="120" y="0" width="40" height="40" fill="none" stroke="#1c1c1c" stroke-width="1"/>
<polygon points="160,0 200,0 180,20" fill="#9a9a9a"/>
<polygon points="200,0 200,40 180,20" fill="#2eb85c"/>
<polygon points="160,40 200,40 180,20" fill="#e65aa8"/>
<polygon points="160,0 160,40 180,20" fill="#d62828"/>
<rect x="160" y="0" width="40" height="40" fill="none" stroke="#1c1c1c" stroke-width="1"/>
<polygon points="200,0 240,0 220,20" fill="#9a9a9a"/>
<polygon points="240,0 240,40 220,20" fill="#2eb85c"/>
<polygon points="200,40 240,40 220,20" fill="#f0821e"/>
<polygon points="200,0 200,40 220,20" fill="#2eb85c"/>
<rect x="200" y="0" width="40" height="40" fill="none" stroke="#1c1c1c" stroke-width="1"/>
<polygon points="240,0 280,0 260,20" fill="#9a9a9a"/>
<polygon points="280,0 280,40 260,20" fill="#f2c744"/>
<polygon points="240,40 280,40 260,20" fill="#17c3c8"/>
<polygon points="240,0 240,40 260,20" fill="#2eb85c"/>
<rect x="240" y="0" width="40" height="40" fill="none" stroke="#1c1c1c" stroke-width="1"/>
<polygon points="280,0 320,0 300,20" fill="#9a9a9a"/>
<polygon points="320,0 320,40 300,20" fill="#2176dd"/>
<polygon points="280,40 320,40 300,20" fill="#17c3c8"/>
<polygon points="280,0 280,40 300,20" fill="#f2c744"/>
<rect x="280" y="0" width="40" height="40" fill="none" stroke="#1c1c1c" stroke-width="1"/>
<polygon points="320,0 360,0 340,20" fill="#9a9a9a"/>
<polygon points="360,0 360,40 340,20" fill="#f2c744"/>
<polygon points="320,40 360,40 340,20" fill="#e65aa8"/>
<polygon points="320,0 320,40 340,20" fill="#2176dd"/>
<rect x="320" y="0" width="40" height="40" fill="none" stroke="#1c1c1c" stroke-width="1"/>
<polygon points="360,0 400,0 380,20" fill="#9a9a9a"/>
<polygon points="400,0 400,40 380,20" fill="#2eb85c"/>
<polygon points="360,40 400,40 380,20" fill="#17c3c8"/>
<polygon points="360,0 360,40 380,20" fill="#f2c744"/>
<rect x="360" y="0" width="40" height="40" fill="none" stroke="#1c1c1c" stroke-width="1"/>
<polygon points="400,0 440,0 420,20" fill="#9a9a9a"/>
<polygon points="440,0 440,40 420,20" fill="#2176dd"/>
<polygon points="400,40 440,40 420,20" fill="#8e44c9"/>
<polygon points="400,0 400,40 420,20" fill="#2eb85c"/>
<rect x="400" y="0" width="40" height="40" fill="none" stroke="#1c1c1c" stroke-width="1"/>
<polygon points="440,0 480,0 460,20" fill="#9a9a9a"/>
<polygon points="480,0 480,40 460,20" fill="#9a9a9a"/>
<polygon points="440,40 480,40 460,20" fill="#2176dd"/>
<polygon points="440,0 440,40 460,20" fill="#2176dd"/>
<rect x="440" y="0" width="40" height="40" fill="none" stroke="#1c1c1c" stroke-width="1"/>
<polygon points="0,40 40,40 20,60" fill="#2176dd"/>
<polygon points="40,40 40,80 20,60" fill="#e65aa8"/>
<polygon points="0,80 40,80 20,60" fill="#f2c744"/>
<polygon points="0,40 0,80 20,60" fill="#9a9a9a"/>
<rect x="0" y="40" width="40" height="40" fill="none" stroke="#1c1c1c" stroke-width="1"/>
<polygon points="40,40 80,40 60,60" fill="#17c3c8"/>
<polygon points="80,40 80,80 60,60" fill="#e65aa8"/>
<polygon points="40,80 80,80 60,60" fill="#17c3c8"/>
<polygon points="40,40 40,80 60,60" fill="#e65aa8"/>
<rect x="40" y="40" width="40" height="40" fill="none" stroke="#1c1c1c" stroke-width="1"/>
<polygon points="80,40 120,40 100,60" fill="#17c3c8"/>
<polygon points="120,40 120,80 100,60" fill="#17c3c8"/>
<polygon points="80,80 120,80 100,60" fill="#e65aa8"/>
<polygon points="80,40 80,80 100,60" fill="#e65aa8"/>
<rect x="80" y="40" width="40" height="40" fill="none" stroke="#1c1c1c" stroke-width="1"/>
<polygon points="120,40 160,40 140,60" fill="#17c3c8"/>
<polygon points="160,40 160,80 140,60" fill="#17c3c8"/>
<polygon points="120,80 160,80 140,60" fill="#8e44c9"/>
<polygon points="120,40 120,80 140,60" fill="#17c3c8"/>
<rect x="120" y="40" width="40" height="40" fill="none" stroke="#1c1c1c" stroke-width="1"/>
<polygon points="160,40 200,40 180,60" fill="#e65aa8"/>
<polygon points="200,40 200,80 180,60" fill="#17c3c8"/>
<polygon points="160,80 200,80 180,60" fill="#17c3c8"/>
<polygon points="160,40 160,80 180,60" fill="#17c3c8"/>
<rect x="160" y="40" width="40" height="40" fill="none" stroke="#1c1c1c" stroke-width="1"/>
<polygon points="200,40 240,40 220,60" fill="#f0821e"/>
<polygon points="240,40 240,80 220,60" fill="#17c3c8"/>
<polygon points="200,80 240,80 220,60" fill="#e65aa8"/>
<polygon points="200,40 200,80 220,60" fill="#17c3c8"/>
<rect x="200" y="40" width="40" height="40" fill="none" stroke="#1c1c1c" stroke-width="1"/>
<polygon points="240,40 280,40 260,60" fill="#17c3c8"/>
<polygon points="280,40 280,80 260,60" fill="#17c3c8"/>
<polygon points="240,80 280,80 260,60" fill="#8e44c9"/>
<polygon points="240,40 240,80 260,60" fill="#17c3c8"/>
<rect x="240" y="40" width="40" height="40" fill="none" stroke="#1c1c1c" stroke-width="1"/>
<polygon points="280,40 320,40 300,60" fill="#17c3c8"/>
<polygon points="320,40 320,80 300,60" fill="#e65aa8"/>
<polygon points="280,80 320,80 300,60" fill="#17c3c8"/>
<polygon points="280,40 280,80 300,60" fill="#17c3c8"/>
<rect x="280" y="40" width="40" height="40" fill="none" stroke="#1c1c1c" stroke-width="1"/>
<polygon points="320,40 360,40 340,60" fill="#e65aa8"/>
<polygon points="360,40 360,80 340,60" fill="#8e44c9"/>
<polygon points="320,80 360,80 340,60" fill="#17c3c8"/>
<polygon points="320,40 320,80 340,60" fill="#e65aa8"/>
<rect x="320" y="40" width="40" height="40" fill="none" stroke="#1c1c1c" stroke-width="1"/>
<polygon points="360,40 400,40 380,60" fill="#17c3c8"/>
<polygon points="400,40 400,80 380,60" fill="#17c3c8"/>
<polygon points="360,80 400,80 380,60" fill="#f0821e"/>
<polygon points="360,40 360,80 380,60" fill="#8e44c9"/>
<rect x="360" y="40" width="40" height="40" fill="none" stroke="#1c1c1c" stroke-width="1"/>
<polygon points="400,40 440,40 420,60" fill="#8e44c9"/>
<polygon points="440,40 440,80 420,60" fill="#e65aa8"/>
<polygon points="400,80 440,80 420,60" fill="#e65aa8"/>
<polygon points="400,40 400,80 420,60" fill="#17c3c8"/>
<rect x="400" y="40" width="40" height="40" fill="none" stroke="#1c1c1c" stroke-width="1"/>
<polygon points="440,40 480,40 460,60" fill="#2176dd"/>
<polygon points="480,40 480,80 460,60" fill="#9a9a9a"/>
<polygon points="440,80 480,80 460,60" fill="#2eb85c"/>
<polygon points="440,40 440,80 460,60" fill="#e65aa8"/>
<rect x="440" y="40" width="40" height="40" fill="none" stroke="#1c1c1c" stroke-width="1"/>
<polygon points="0,80 40,80 20,100" fill="#f2c744"/>
<polygon points="40,80 40,120 20,100" fill="#e65aa8"/>
<polygon points="0,120 40,120 20,100" fill="#d62828"/>
<polygon points="0,80 0,120 20,100" fill="#9a9a9a"/>
<rect x="0" y="80" width="40" height="40" fill="none" stroke="#1c1c1c" stroke-width="1"/>
<polygon points="40,80 80,80 60,100" fill="#17c3c8"/>
<polygon points="80,80 80,120 60,100" fill="#17c3c8"/>
<polygon points="40,120 80,120 60,100" fill="#e65aa8"/>
<polygon points="40,80 40,120 60,100" fill="#e65aa8"/>
<rect x="40" y="80" width="40" height="40" fill="none" stroke="#1c1c1c" stroke-width="1"/>
<polygon points="80,80 120,80 100,100" fill="#e65aa8"/>
<polygon points="120,80 120,120 100,100" fill="#f0821e"/>
<polygon points="80,120 120,120 100,100" fill="#e65aa8"/>
<polygon points="80,80 80,120 100,100" fill="#17c3c8"/>
<rect x="80" y="80" width="40" height="40" fill="none" stroke="#1c1c1c" stroke-width="1"/>
<polygon points="120,80 160,80 140,100" fill="#8e44c9"/>
<polygon points="160,80 160,120 140,100" fill="#8e44c9"/>
<polygon points="120,120 160,120 140,100" fill="#17c3c8"/>
<polygon points="120,80 120,120 140,100" fill="#f0821e"/>
<rect x="120" y="80" width="40" height="40" fill="none" stroke="#1c1c1c" stroke-width="1"/>
<polygon points="160,80 200,80 180,100" fill="#17c3c8"/>
<polygon points="200,80 200,120 180,100" fill="#f0821e"/>
<polygon points="160,120 200,120 180,100" fill="#f0821e"/>
<polygon points="160,80 160,120 180,100" fill="#8e44c9"/>
<rect x="160" y="80" width="40" height="40" fill="none" stroke="#1c1c1c" stroke-width="1"/>
<polygon points="200,80 240,80 220,100" fill="#e65aa8"/>
<polygon points="240,80 240,120 220,100" fill="#e65aa8"/>
<polygon points="200,120 240,120 220,100" fill="#17c3c8"/>
<polygon points="200,80 200,120 220,100" fill="#f0821e"/>
<rect x="200" y="80" width="40" height="40" fill="none" stroke="#1c1c1c" stroke-width="1"/>
<polygon points="240,80 280,80 260,100" fill="#8e44c9"/>
<polygon points="280,80 280,120 260,100" fill="#17c3c8"/>
<polygon points="240,120 280,120 260,100" fill="#e65aa8"/>
<polygon points="240,80 240,120 260,100" fill="#e65aa8"/>
<rect x="240" y="80" width="40" height="40" fill="none" stroke="#1c1c1c" stroke-width="1"/>
<polygon points="280,80 320,80 300,100" fill="#17c3c8"/>
<polygon points="320,80 320,120 300,100" fill="#e65aa8"/>
<polygon points="280,120 320,120 300,100" fill="#17c3c8"/>
<polygon points="280,80 280,120 300,100" fill="#17c3c8"/>
<rect x="280" y="80" width="40" height="40" fill="none" stroke="#1c1c1c" stroke-width="1"/>
<polygon points="320,80 360,80 340,100" fill="#17c3c8"/>
<polygon points="360,80 360,120 340,100" fill="#f0821e"/>
<polygon points="320,120 360,120 340,100" fill="#17c3c8"/>
<polygon points="320,80 320,120 340,100" fill="#e65aa8"/>
<rect x="320" y="80" width="40" height="40" fill="none" stroke="#1c1c1c" stroke-width="1"/>
<polygon points="360,80 400,80 380,100" fill="#f0821e"/>
<polygon points="400,80 400,120 380,100" fill="#8e44c9"/>
<polygon points="360,120 400,120 380,100" fill="#e65aa8"/>
<polygon points="360,80 360,120 380,100" fill="#f0821e"/>
<rect x="360" y="80" width="40" height="40" fill="none" stroke="#1c1c1c" stroke-width="1"/>
<polygon points="400,80 440,80 420,100" fill="#e65aa8"/>
<polygon points="440,80 440,120 420,100" fill="#e65aa8"/>
<polygon points="400,120 440,120 420,100" fill="#e65aa8"/>
<polygon points="400,80 400,120 420,100" fill="#8e44c9"/>
<rect x="400" y="80" width="40" height="40" fill="none" stroke="#1c1c1c" stroke-width="1"/>
<polygon points="440,80 480,80 460,100" fill="#2eb85c"/>
<polygon points="480,80 480,120 460,100" fill="#9a9a9a"/>
<polygon points="440,120 480,120 460,100" fill="#d62828"/>
<polygon points="440,80 440,120 460,100" fill="#e65aa8"/>
<rect x="440" y="80" width="40" height="40" fill="none" stroke="#1c1c1c" stroke-width="1"/>
<polygon points="0,120 40,120 20,140" fill="#d62828"/>
<polygon points="40,120 40,160 20,140" fill="#17c3c8"/>
<polygon points="0,160 40,160 20,140" fill="#2176dd"/>
<polygon points="0,120 0,160 20,140" fill="#9a9a9a"/>
<rect x="0" y="120" width="40" height="40" fill="none" stroke="#1c1c1c" stroke-width="1"/>
<polygon points="40,120 80,120 60,140" fill="#e65aa8"/>
<polygon points="80,120 80,160 60,140" fill="#e65aa8"/>
<polygon points="40,160 80,160 60,140" fill="#17c3c8"/>
<polygon points="40,120 40,160 60,140" fill="#17c3c8"/>
<rect x="40" y="120" width="40" height="40" fill="none" stroke="#1c1c1c" stroke-width="1"/>
<polygon points="80,120 120,120 100,140" fill="#e65aa8"/>
<polygon points="120,120 120,160 100,140" fill="#e65aa8"/>
<polygon points="80,160 120,160 100,140" fill="#17c3c8"/>
<polygon points="80,120 80,160 100,140" fill="#e65aa8"/>
<rect x="80" y="120" width="40" height="40" fill="none" stroke="#1c1c1c" stroke-width="1"/>
<polygon points="120,120 160,120 140,140" fill="#17c3c8"/>
<polygon points="160,120 160,160 140,140" fill="#8e44c9"/>
<polygon points="120,160 160,160 140,140" fill="#f0821e"/>
<polygon points="120,120 120,160 140,140" fill="#e65aa8"/>
<rect x="120" y="120" width="40" height="40" fill="none" stroke="#1c1c1c" stroke-width="1"/>
<polygon points="160,120 200,120 180,140" fill="#f0821e"/>
<polygon points="200,120 200,160 180,140" fill="#e65aa8"/>
<polygon points="160,160 200,160 180,140" fill="#17c3c8"/>
<polygon points="160,120 160,160 180,140" fill="#8e44c9"/>
<rect x="160" y="120" width="40" height="40" fill="none" stroke="#1c1c1c" stroke-width="1"/>
<polygon points="200,120 240,120 220,140" fill="#17c3c8"/>
<polygon points="240,120 240,160 220,140" fill="#e65aa8"/>
<polygon points="200,160 240,160 220,140" fill="#17c3c8"/>
<polygon points="200,120 200,160 220,140" fill="#e65aa8"/>
<rect x="200" y="120" width="40" height="40" fill="none" stroke="#1c1c1c" stroke-width="1"/>
<polygon points="240,120 280,120 260,140" fill="#e65aa8"/>
<polygon points="280,120 280,160 260,140" fill="#17c3c8"/>
<polygon points="240,160 280,160 260,140" fill="#17c3c8"/>
<polygon points="240,120 240,160 260,140" fill="#e65aa8"/>
<rect x="240" y="120" width="40" height="40" fill="none" stroke="#1c1c1c" stroke-width="1"/>
<polygon points="280,120 320,120 300,140" fill="#17c3c8"/>
<polygon points="320,120 320,160 300,140" fill="#e65aa8"/>
<polygon points="280,160 320,160 300,140" fill="#17c3c8"/>
<polygon points="280,120 280,160 300,140" fill="#17c3c8"/>
<rect x="280" y="120" width="40" height="40" fill="none" stroke="#1c1c1c" stroke-width="1"/>
<polygon points="320,120 360,120 340,140" fill="#17c3c8"/>
<polygon points="360,120 360,160 340,140" fill="#17c3c8"/>
<polygon points="320,160 360,160 340,140" fill="#17c3c8"/>
<polygon points="320,120 320,160 340,140" fill="#e65aa8"/>
<rect x="320" y="120" width="40" height="40" fill="none" stroke="#1c1c1c" stroke-width="1"/>
<polygon points="360,120 400,120 380,140" fill="#e65aa8"/>
<polygon points="400,120 400,160 380,140" fill="#e65aa8"/>
<polygon points="360,160 400,160 380,140" fill="#f0821e"/>
<polygon points="360,120 360,160 380,140" fill="#17c3c8"/>
<rect x="360" y="120" width="40" height="40" fill="none" stroke="#1c1c1c" stroke-width="1"/>
<polygon points="400,120 440,120 420,140" fill="#e65aa8"/>
<polygon points="440,120 440,160 420,140" fill="#e65aa8"/>
<polygon points="400,160 440,160 420,140" fill="#e65aa8"/>
<polygon points="400,120 400,160 420,140" fill="#e65aa8"/>
<rect x="400" y="120" width="40" height="40" fill="none" stroke="#1c1c1c" stroke-width="1"/>
<polygon points="440,120 480,120 460,140" fill="#d62828"/>
<polygon points="480,120 480,160 460,140" fill="#9a9a9a"/>
<polygon points="440,160 480,160 460,140" fill="#f2c744"/>
<polygon points="440,120 440,160 460,140" fill="#e65aa8"/>
<rect x="440" y="120" width="40" height="40" fill="none" stroke="#1c1c1c" stroke-width="1"/>
<polygon points="0,160 40,160 20,180" fill="#2176dd"/>
<polygon points="40,160 40,200 20,180" fill="#17c3c8"/>
<polygon points="0,200 40,200 20,180" fill="#2eb85c"/>
<polygon points="0,160 0,200 20,180" fill="#9a9a9a"/>
<rect x="0" y="160" width="40" height="40" fill="none" stroke="#1c1c1c" stroke-width="1"/>
<polygon points="40,160 80,160 60,180" fill="#17c3c8"/>
<polygon points="80,160 80,200 60,180" fill="#e65aa8"/>
<polygon points="40,200 80,200 60,180" fill="#e65aa8"/>
<polygon points="40,160 40,200 60,180" fill="#17c3c8"/>
<rect x="40" y="160" width="40" height="40" fill="none" stroke="#1c1c1c" stroke-width="1"/>
<polygon points="80,160 120,160 100,180" fill="#17c3c8"/>
<polygon points="120,160 120,200 100,180" fill="#f0821e"/>
<polygon points="80,200 120,200 100,180" fill="#e65aa8"/>
<polygon points="80,160 80,200 100,180" fill="#e65aa8"/>
<rect x="80" y="160" width="40" height="40" fill="none" stroke="#1c1c1c" stroke-width="1"/>
<polygon points="120,160 160,160 140,180" fill="#f0821e"/>
<polygon points="160,160 160,200 140,180" fill="#e65aa8"/>
<polygon points="120,200 160,200 140,180" fill="#17c3c8"/>
<polygon points="120,160 120,200 140,180" fill="#f0821e"/>
<rect x="120" y="160" width="40" height="40" fill="none" stroke="#1c1c1c" stroke-width="1"/>
<polygon points="160,160 200,160 180,180" fill="#17c3c8"/>
<polygon points="200,160 200,200 180,180" fill="#17c3c8"/>
<polygon points="160,200 200,200 180,180" fill="#e65aa8"/>
<polygon points="160,160 160,200 180,180" fill="#e65aa8"/>
<rect x="160" y="160" width="40" height="40" fill="none" stroke="#1c1c1c" stroke-width="1"/>
<polygon points="200,160 240,160 220,180" fill="#17c3c8"/>
<polygon points="240,160 240,200 220,180" fill="#17c3c8"/>
<polygon points="200,200 240,200 220,180" fill="#8e44c9"/>
<polygon points="200,160 200,200 220,180" fill="#17c3c8"/>
<rect x="200" y="160" width="40" height="40" fill="none" stroke="#1c1c1c" stroke-width="1"/>
<polygon points="240,160 280,160 260,180" fill="#17c3c8"/>
<polygon points="280,160 280,200 260,180" fill="#8e44c9"/>
<polygon points="240,200 280,200 260,180" fill="#e65aa8"/>
<polygon points="240,160 240,200 260,180" fill="#17c3c8"/>
<rect x="240" y="160" width="40" height="40" fill="none" stroke="#1c1c1c" stroke-width="1"/>
<polygon points="280,160 320,160 300,180" fill="#17c3c8"/>
<polygon points="320,160 320,200 300,180" fill="#e65aa8"/>
<polygon points="280,200 320,200 300,180" fill="#8e44c9"/>
<polygon points="280,160 280,200 300,180" fill="#8e44c9"/>
<rect x="280" y="160" width="40" height="40" fill="none" stroke="#1c1c1c" stroke-width="1"/>
<polygon points="320,160 360,160 340,180" fill="#17c3c8"/>
<polygon points="360,160 360,200 340,180" fill="#17c3c8"/>
<polygon points="320,200 360,200 340,180" fill="#e65aa8"/>
<polygon points="320,160 320,200 340,180" fill="#e65aa8"/>
<rect x="320" y="160" width="40" height="40" fill="none" stroke="#1c1c1c" stroke-width="1"/>
<polygon points="360,160 400,160 380,180" fill="#f0821e"/>
<polygon points="400,160 400,200 380,180" fill="#f0821e"/>
<polygon points="360,200 400,200 380,180" fill="#e65aa8"/>
<polygon points="360,160 360,200 380,180" fill="#17c3c8"/>
<rect x="360" y="160" width="40" height="40" fill="none" stroke="#1c1c1c" stroke-width="1"/>
<polygon points="400,160 440,160 420,180" fill="#e65aa8"/>
<polygon points="440,160 440,200 420,180" fill="#e65aa8"/>
<polygon points="400,200 440,200 420,180" fill="#e65aa8"/>
<polygon points="400,160 400,200 420,180" fill="#f0821e"/>
<rect x="400" y="160" width="40" height="40" fill="none" stroke="#1c1c1c" stroke-width="1"/>
<polygon points="440,160 480,160 460,180" fill="#f2c744"/>
<polygon points="480,160 480,200 460,180" fill="#9a9a9a"/>
<polygon points="440,200 480,200 460,180" fill="#2176dd"/>
<polygon points="440,160 440,200 460,180" fill="#e65aa8"/>
<rect x="440" y="160" width="40" height="40" fill="none" stroke="#1c1c1c" stroke-width="1"/>
<polygon points="0,200 40,200 20,220" fill="#2eb85c"/>
<polygon points="40,200 40,240 20,220" fill="#2eb85c"/>
<polygon points="0,240 40,240 20,220" fill="#9a9a9a"/>
<polygon points="0,200 0,240 20,220" fill="#9a9a9a"/>
<rect x="0" y="200" width="40" height="40" fill="none" stroke="#1c1c1c" stroke-width="1"/>
<polygon points="40,200 80,200 60,220" fill="#e65aa8"/>
<polygon points="80,200 80,240 60,220" fill="#d62828"/>
<polygon points="40,240 80,240 60,220" fill="#9a9a9a"/>
<polygon points="40,200 40,240 60,220" fill="#2eb85c"/>
<rect x="40" y="200" width="40" height="40" fill="none" stroke="#1c1c1c" stroke-width="1"/>
<polygon points="80,200 120,200 100,220" fill="#e65aa8"/>
<polygon points="120,200 120,240 100,220" fill="#f2c744"/>
<polygon points="80,240 120,240 100,220" fill="#9a9a9a"/>
<polygon points="80,200 80,240 100,220" fill="#d62828"/>
<rect x="80" y="200" width="40" height="40" fill="none" stroke="#1c1c1c" stroke-width="1"/>
<polygon points="120,200 160,200 140,220" fill="#17c3c8"/>
<polygon points="160,200 160,240 140,220" fill="#d62828"/>
<polygon points="120,240 160,240 140,220" fill="#9a9a9a"/>
<polygon points="120,200 120,240 140,220" fill="#f2c744"/>
<rect x="120" y="200" width="40" height="40" fill="none" stroke="#1c1c1c" stroke-width="1"/>
<polygon points="160,200 200,200 180,220" fill="#e65aa8"/>
<polygon points="200,200 200,240 180,220" fill="#2eb85c"/>
<polygon points="160,240 200,240 180,220" fill="#9a9a9a"/>
<polygon points="160,200 160,240 180,220" fill="#d62828"/>
<rect x="160" y="200" width="40" height="40" fill="none" stroke="#1c1c1c" stroke-width="1"/>
<polygon points="200,200 240,200 220,220" fill="#8e44c9"/>
<polygon points="240,200 240,240 220,220" fill="#2176dd"/>
<polygon points="200,240 240,240 220,220" fill="#9a9a9a"/>
<polygon points="200,200 200,240 220,220" fill="#2eb85c"/>
<rect x="200" y="200" width="40" height="40" fill="none" stroke="#1c1c1c" stroke-width="1"/>
<polygon points="240,200 280,200 260,220" fill="#e65aa8"/>
<polygon points="280,200 280,240 260,220" fill="#d62828"/>
<polygon points="240,240 280,240 260,220" fill="#9a9a9a"/>
<polygon points="240,200 240,240 260,220" fill="#2176dd"/>
<rect x="240" y="200" width="40" height="40" fill="none" stroke="#1c1c1c" stroke-width="1"/>
<polygon points="280,200 320,200 300,220" fill="#8e44c9"/>
<polygon points="320,200 320,240 300,220" fill="#d62828"/>
<polygon points="280,240 320,240 300,220" fill="#9a9a9a"/>
<polygon points="280,200 280,240 300,220" fill="#d62828"/>
<rect x="280" y="200" width="40" height="40" fill="none" stroke="#1c1c1c" stroke-width="1"/>
<polygon points="320,200 360,200 340,220" fill="#e65aa8"/>
<polygon points="360,200 360,240 340,220" fill="#f2c744"/>
<polygon points="320,240 360,240 340,220" fill="#9a9a9a"/>
<polygon points="320,200 320,240 340,220" fill="#d62828"/>
<rect x="320" y="200" width="40" height="40" fill="none" stroke="#1c1c1c" stroke-width="1"/>
<polygon points="360,200 400,200 380,220" fill="#e65aa8"/>
<polygon points="400,200 400,240 380,220" fill="#f2c744"/>
<polygon points="360,240 400,240 380,220" fill="#9a9a9a"/>
<polygon points="360,200 360,240 380,220" fill="#f2c744"/>
<rect x="360" y="200" width="40" height="40" fill="none" stroke="#1c1c1c" stroke-width="1"/>
<polygon points="400,200 440,200 420,220" fill="#e65aa8"/>
<polygon points="440,200 440,240 420,220" fill="#2176dd"/>
<polygon points="400,240 440,240 420,220" fill="#9a9a9a"/>
<polygon points="400,200 400,240 420,220" fill="#f2c744"/>
<rect x="400" y="200" width="40" height="40" fill="none" stroke="#1c1c1c" stroke-width="1"/>
<polygon points="440,200 480,200 460,220" fill="#2176dd"/>
<polygon points="480,200 480,240 460,220" fill="#9a9a9a"/>
<polygon points="440,240 480,240 460,220" fill="#9a9a9a"/>
<polygon points="440,200 440,240 460,220" fill="#2176dd"/>
<rect x="440" y="200" width="40" height="40" fill="none" stroke="#1c1c1c" stroke-width="1"/>
</svg>
